<?xml version="1.0" standalone="no"?>
<!DOCTYPE svg PUBLIC "-//W3C//DTD SVG 20010904//EN"
 "http://www.w3.org/TR/2001/REC-SVG-20010904/DTD/svg10.dtd">
<svg version="1.0" xmlns="http://www.w3.org/2000/svg"
 width="1700.000000pt" height="1412.000000pt" viewBox="0 0 1700.000000 1412.000000"
 preserveAspectRatio="xMidYMid meet">

<g transform="translate(0.000000,1412.000000) scale(0.100000,-0.100000)"
fill="#000000" stroke="none">
<path d="M12695 13333 c-195 -27 -434 -134 -657 -293 -96 -68 -382 -360 -480
-490 -96 -128 -149 -227 -231 -435 -144 -366 -256 -823 -342 -1395 -14 -96
-35 -207 -45 -245 -121 -436 -530 -1011 -1095 -1536 -159 -149 -173 -159 -245
-185 -105 -38 -256 -116 -377 -196 -57 -37 -1080 -757 -2274 -1599 l-2170
-1530 -222 -24 c-725 -78 -1341 -200 -1853 -366 -694 -225 -1102 -551 -1132
-906 l-5 -63 503 0 c277 0 501 -2 499 -4 -4 -4 -979 -216 -1667 -363 l-273
-58 2103 -5 c1995 -5 2105 -6 2148 -23 89 -35 491 -149 800 -227 769 -192
1619 -338 2391 -411 l127 -11 12 -62 c91 -475 333 -901 685 -1208 l90 -78 91
-213 91 -212 -481 -192 c-265 -106 -490 -197 -501 -202 -13 -6 521 -10 1470
-10 l1490 0 -575 153 c-316 84 -657 174 -757 201 l-181 48 -32 76 c-18 42
-108 255 -201 473 l-169 398 0 127 c0 195 42 347 151 551 76 142 159 253 289
382 124 125 330 285 431 338 35 18 133 63 217 102 288 129 626 321 936 530
601 404 1092 868 1477 1395 380 519 634 1082 769 1696 31 144 43 241 61 496
16 220 6 1062 -15 1318 -38 461 -96 971 -157 1365 -44 287 -50 373 -39 515 36
434 261 698 658 771 65 12 181 17 451 21 l364 6 -6 57 c-23 220 -236 457 -558
621 -15 8 -129 132 -253 276 -125 144 -251 284 -282 310 -172 149 -424 270
-641 308 -82 14 -310 19 -388 8z m351 -458 c30 -15 61 -42 79 -67 25 -36 30
-52 30 -103 0 -111 -69 -193 -173 -203 -224 -21 -310 280 -107 375 64 29 109
29 171 -2z"/>
</g>
</svg>
